#!OML:ASF I:\golf\golf\golf 2\Subject 1\2002-09-07\Subject1.ASF
:FULLY-SPECIFIED
:DEGREES
432
root -5.73932 17.9932 -3.68002 -167.559 -4.72861 -176.064
lowerback -8.94474 16.6725 14.3184
upperback -13.8208 19.4122 -0.267613
thorax -5.61421 7.56108 -5.92429
lowerneck -8.4052 -20.9618 -3.52018
upperneck 3.40433 -28.6775 7.64612
head 4.29609 -14.0428 0.882966
rclavicle -1.78906e-014 -3.89618e-014
rhumerus 110.184 23.8865 -47.2485
rradius 67.5848
rwrist 7.38131
rhand -37.9827 31.9505
rfingers 7.12502
rthumb -11.0226 2.25987
lclavicle -1.78906e-014 -3.89618e-014
lhumerus 66.8713 21.5459 66.3516
lradius 80.4365
lwrist 19.8089
lhand -35.7796 20.216
lfingers 7.12502
lthumb -188.897 -129.992
rfemur 25.3682 -14.7234 19.0736
rtibia 6.04305e-014
rfoot 36.4213 -28.5989
rtoes 28.9615
lfemur -28.8577 -19.0325 -13.8095
ltibia 27.4342
lfoot 35.3078 -47.0419
ltoes 51.4864
433
root -5.73669 17.986 -3.71458 -167.701 -4.93854 -176.118
lowerback -8.9771 16.6003 14.1834
upperback -13.7868 19.3442 -0.394344
thorax -5.56258 7.55585 -5.9954
lowerneck -8.93504 -20.8989 -3.40728
upperneck 4.05492 -28.6642 7.85919
head 4.18044 -13.9891 0.733241
rclavicle -7.31528e-014 -4.77083e-015
rhumerus 110.783 23.2326 -47.0835
rradius 68.3444
rwrist 7.12249
rhand -38.8477 33.0433
rfingers 7.12502
rthumb -11.8568 3.399
lclavicle -7.31528e-014 -4.77083e-015
lhumerus 67.554 22.4692 66.1884
lradius 81.2527
lwrist 18.656
lhand -36.0212 20.5113
lfingers 7.12502
lthumb -189.13 -129.706
rfemur 25.6922 -14.8714 18.8633
rtibia -3.18055e-015
rfoot 37.1396 -28.25
rtoes 31.515
lfemur -28.6429 -19.0315 -13.9729
ltibia 27.5296
lfoot 36.5821 -46.2871
ltoes 52.3779
434
root -5.7305 17.9806 -3.7485 -167.74 -5.11232 -176.189
lowerback -9.15484 16.5371 13.8918
upperback -13.8171 19.2463 -0.482945
thorax -5.5689 7.53001 -5.93939
lowerneck -9.12213 -20.9622 -3.3612
upperneck 4.22403 -28.7498 7.73869
head 4.24088 -14.0246 0.660911
rclavicle 8.42847e-014 1.59028e-014
rhumerus 111.371 22.8077 -46.9699
rradius 68.9344
rwrist 6.92854
rhand -39.6099 34.2109
rfingers 7.12502
rthumb -12.5917 4.61036
lclavicle 8.42847e-014 1.59028e-014
lhumerus 68.0824 23.4477 65.9646
lradius 82.0588
lwrist 17.7796
lhand -36.3151 20.5981
lfingers 7.12502
lthumb -189.414 -129.632
rfemur 25.8652 -15.0056 18.6976
rtibia 2.22639e-014
rfoot 37.388 -27.5658
rtoes 30.3544
lfemur -28.5601 -19.059 -14.0745
ltibia 27.622
lfoot 37.4322 -45.8286
ltoes 52.9043
435
root -5.73008 17.9772 -3.77562 -167.641 -5.215 -176.246
lowerback -9.35561 16.5473 13.6976
upperback -13.9297 19.2181 -0.609091
thorax -5.6044 7.51283 -5.95067
lowerneck -9.2128 -21.0216 -3.5069
upperneck 4.50242 -28.8414 7.72019
head 4.36228 -14.06 0.628947
rclavicle -1.79503e-013 -7.35503e-014
rhumerus 111.695 22.489 -46.7936
rradius 69.7632
rwrist 6.74344
rhand -40.13 35.1947
rfingers 7.12502
rthumb -13.0931 5.62567
lclavicle -1.79503e-013 -7.35503e-014
lhumerus 68.5443 24.2983 65.7974
lradius 82.7955
lwrist 16.8251
lhand -36.9823 20.6678
lfingers 7.12502
lthumb -190.058 -129.593
rfemur 25.8397 -15.0781 18.5843
rtibia 1.145e-013
rfoot 37.8781 -26.4213
rtoes 27.5164
lfemur -28.6274 -19.0254 -14.1313
ltibia 27.6884
lfoot 37.6297 -45.966
ltoes 52.9806
436
root -5.73478 17.9757 -3.79941 -167.516 -5.30719 -176.178
lowerback -9.47387 16.6262 13.745
upperback -14.165 19.2636 -0.759335
thorax -5.73624 7.48552 -6.1092
lowerneck -8.81381 -21.0735 -3.80202
upperneck 4.50847 -28.9096 7.80983
head 4.35997 -14.1064 0.708132
rclavicle 2.28602e-014 3.61788e-014
rhumerus 111.613 22.3173 -46.6999
rradius 70.7915
rwrist 6.61983
rhand -41.9614 35.8122
rfingers 7.12502
rthumb -14.858 6.36496
lclavicle 2.28602e-014 3.61788e-014
lhumerus 68.8612 24.8491 65.629
lradius 83.3685
lwrist 15.6077
lhand -37.5922 20.7697
lfingers 7.12502
lthumb -190.646 -129.52
rfemur 25.7576 -15.1212 18.6149
rtibia 4.13472e-014
rfoot 38.1762 -26.1966
rtoes 27.5928
lfemur -28.7458 -19.0184 -14.0411
ltibia 27.7489
lfoot 37.8854 -45.9268
ltoes 53.1954
437
root -5.73954 17.9731 -3.82342 -167.414 -5.42212 -176.166
lowerback -9.61254 16.7094 13.7725
upperback -14.43 19.3077 -0.946078
thorax -5.88438 7.4531 -6.29447
lowerneck -8.24515 -21.1232 -3.94944
upperneck 4.40392 -28.975 7.79823
head 4.2624 -14.1651 0.779289
rclavicle -9.95911e-014 -7.79236e-014
rhumerus 111.438 22.1303 -46.755
rradius 71.6355
rwrist 6.29342
rhand -42.898 36.6992
rfingers 7.12502
rthumb -15.7601 7.32084
lclavicle -9.95911e-014 -7.79236e-014
lhumerus 69.1741 25.2546 65.4309
lradius 83.8585
lwrist 14.6599
lhand -38.0726 20.9091
lfingers 7.12502
lthumb -191.109 -129.405
rfemur 25.6944 -15.2003 18.5955
rtibia -6.36111e-015
rfoot 38.3078 -26.3637
rtoes 28.6032
lfemur -28.8645 -19.1557 -13.9821
ltibia 27.8374
lfoot 38.4221 -45.4407
ltoes 53.6554
438
root -5.74299 17.9685 -3.8475 -167.357 -5.47984 -176.256
lowerback -9.83331 16.7523 13.6588
upperback -14.5592 19.3054 -1.08967
thorax -5.89648 7.43881 -6.34804
lowerneck -8.10887 -21.1451 -3.96698
upperneck 4.5017 -28.9936 7.63134
head 4.24992 -14.1839 0.748107
rclavicle -6.42074e-014 -6.75868e-014
rhumerus 111.496 21.9237 -46.8571
rradius 72.3492
rwrist 5.84451
rhand -43.2907 37.6429
rfingers 7.12502
rthumb -16.1383 8.29479
lclavicle -6.42074e-014 -6.75868e-014
lhumerus 69.4287 25.9027 65.0758
lradius 84.4057
lwrist 14.0899
lhand -38.3931 20.8541
lfingers 7.12502
lthumb -191.418 -129.477
rfemur 25.6815 -15.2492 18.4608
rtibia 4.77083e-014
rfoot 38.6326 -26.1764
rtoes 28.4743
lfemur -28.8979 -19.243 -14.078
ltibia 27.9213
lfoot 38.5422 -45.4077
ltoes 53.7281
439
root -5.74396 17.9642 -3.87292 -167.348 -5.51201 -176.235
lowerback -10.0696 16.7849 13.6186
upperback -14.6196 19.2863 -1.16277
thorax -5.83039 7.42454 -6.35288
lowerneck -8.22687 -21.1389 -3.99938
upperneck 4.74631 -28.9669 7.42187
head 4.31493 -14.1684 0.674525
rclavicle -5.66536e-014 -5.76476e-014
rhumerus 111.576 21.7306 -46.9
rradius 73.1303
rwrist 5.58584
rhand -43.8719 38.4679
rfingers 7.12502
rthumb -16.6979 9.16604
lclavicle -5.66536e-014 -5.76476e-014
lhumerus 69.6002 26.6351 64.598
lradius 84.7854
lwrist 13.2172
lhand -38.3903 20.3419
lfingers 7.12502
lthumb -191.416 -129.989
rfemur 25.7116 -15.2625 18.4584
rtibia -4.13472e-014
rfoot 38.7321 -26.1585
rtoes 28.0212
lfemur -28.841 -19.2152 -14.0834
ltibia 27.9672
lfoot 38.2086 -45.9165
ltoes 53.4023
440
root -5.74578 17.9619 -3.89654 -167.327 -5.51641 -176.273
lowerback -10.2692 16.8248 13.555
upperback -14.7034 19.2843 -1.25562
thorax -5.80663 7.4145 -6.37683
lowerneck -8.194 -21.1318 -4.10206
upperneck 4.87274 -28.9455 7.33671
head 4.34899 -14.16 0.659384
rclavicle -1.50082e-013 -7.63333e-014
rhumerus 111.548 21.5179 -46.8541
rradius 73.7863
rwrist 5.38352
rhand -44.6405 39.1877
rfingers 7.12502
rthumb -17.4377 9.94986
lclavicle -1.50082e-013 -7.63333e-014
lhumerus 69.8014 27.1429 64.2815
lradius 84.9614
lwrist 12.0173
lhand -38.4386 20.073
lfingers 7.12502
lthumb -191.462 -130.26
rfemur 25.7269 -15.2632 18.3977
rtibia -9.54166e-015
rfoot 38.9474 -25.9878
rtoes 27.3347
lfemur -28.7831 -19.267 -14.1369
ltibia 27.9958
lfoot 37.8826 -46.2223
ltoes 53.2321
441
root -5.7482 17.9617 -3.91728 -167.303 -5.46981 -176.418
lowerback -10.42 16.8604 13.4134
upperback -14.7752 19.2973 -1.36413
thorax -5.80726 7.41992 -6.39168
lowerneck -8.03314 -21.1355 -4.27801
upperneck 4.79774 -28.9415 7.4228
head 4.33747 -14.1635 0.716082
rclavicle -7.95139e-015 3.97569e-016
rhumerus 111.57 21.5237 -46.9036
rradius 74.1599
rwrist 5.2489
rhand -45.4608 40.0412
rfingers 7.12502
rthumb -18.227 10.8752
lclavicle -7.95139e-015 3.97569e-016
lhumerus 69.8959 27.5507 64.0169
lradius 85.1749
lwrist 10.9449
lhand -38.6994 20.4337
lfingers 7.12502
lthumb -191.714 -129.914
rfemur 25.7358 -15.2357 18.2125
rtibia -4.77083e-014
rfoot 39.313 -25.7925
rtoes 26.6996
lfemur -28.7275 -19.3852 -14.3035
ltibia 28.0206
lfoot 37.6726 -46.3288
ltoes 53.1528
442
root -5.74865 17.959 -3.93554 -167.351 -5.44415 -176.522
lowerback -10.5087 16.8864 13.319
upperback -14.8306 19.3115 -1.44154
thorax -5.81973 7.4252 -6.40966
lowerneck -7.86257 -21.1324 -4.39007
upperneck 4.71004 -28.9166 7.40933
head 4.29567 -14.1604 0.748998
rclavicle 2.5842e-015 2.90226e-014
rhumerus 111.567 21.6152 -47.0055
rradius 74.4534
rwrist 5.23572
rhand -46.3237 40.8678
rfingers 7.12502
rthumb -19.057 11.7814
lclavicle 2.5842e-015 2.90226e-014
lhumerus 69.8598 27.8958 63.6493
lradius 85.3451
lwrist 10.0322
lhand -38.9905 20.8035
lfingers 7.12502
lthumb -191.994 -129.56
rfemur 25.8298 -15.222 18.0692
rtibia -3.18055e-015
rfoot 39.2565 -26.364
rtoes 27.344
lfemur -28.5881 -19.4583 -14.4488
ltibia 28.0099
lfoot 37.589 -46.44
ltoes 53.0604
443
root -5.74937 17.9545 -3.95041 -167.43 -5.46691 -176.596
lowerback -10.5686 16.8929 13.2702
upperback -14.8803 19.3043 -1.49898
thorax -5.83959 7.41684 -6.4386
lowerneck -7.8179 -21.1229 -4.46483
upperneck 4.81682 -28.8826 7.26591
head 4.30846 -14.1483 0.722285
rclavicle -2.75317e-014 -1.43125e-014
rhumerus 111.478 21.5878 -47.0799
rradius 74.7597
rwrist 5.15506
rhand -46.971 41.777
rfingers 7.12502
rthumb -19.6794 12.7531
lclavicle -2.75317e-014 -1.43125e-014
lhumerus 69.8102 28.1882 63.2384
lradius 85.3549
lwrist 9.08267
lhand -39.1734 21.0668
lfingers 7.12502
lthumb -192.171 -129.307
rfemur 25.9671 -15.2491 17.9604
rtibia -4.45278e-014
rfoot 38.9355 -27.1965
rtoes 28.4104
lfemur -28.4103 -19.52 -14.5777
ltibia 27.9616
lfoot 37.6907 -46.3795
ltoes 53.1484
